# xmcd
#
# Track frame offsets:
# 150
# 47485
# 94795
# 132004
# 177978
# 201466
# 235657
# 274881
# 308687
#
# Disc length: 4754 seconds
#
#
# Revision: 0
# Processed by: cddbd v1.5.2PL0 Copyright (c) Steve Scherf et al.
# Submitted via: FreeRIP 2.96 
#
DISCID=76129009
DTITLE=Nicole Jamet und Marie-Anne Le Pezennec - Killmore ... was niemand wissen darf  CD 3
DYEAR=2008
DGENRE=Speech
TTITLE0=22 Killmore
TTITLE1=23 Killmore
TTITLE2=24 Killmore
TTITLE3=25 Killmore
TTITLE4=26 Killmore
TTITLE5=27 Killmore
TTITLE6=28 Killmore
TTITLE7=29 Killmore
TTITLE8=30 Killmore
EXTD=gelesen von Viola Sauer
EXTT0=
EXTT1=
EXTT2=
EXTT3=
EXTT4=
EXTT5=
EXTT6=
EXTT7=
EXTT8=
PLAYORDER=
